<svg width="20" height="20" viewBox="0 0 20 20" fill="none" xmlns="http://www.w3.org/2000/svg">
<path d="M9.99984 5.83342C7.69984 5.83342 5.83317 7.70008 5.83317 10.0001C5.83317 12.3001 7.69984 14.1667 9.99984 14.1667C12.2998 14.1667 14.1665 12.3001 14.1665 10.0001C14.1665 7.70008 12.2998 5.83342 9.99984 5.83342ZM9.99984 1.66675C5.39984 1.66675 1.6665 5.40008 1.6665 10.0001C1.6665 14.6001 5.39984 18.3334 9.99984 18.3334C14.5998 18.3334 18.3332 14.6001 18.3332 10.0001C18.3332 5.40008 14.5998 1.66675 9.99984 1.66675ZM9.99984 16.6667C6.3165 16.6667 3.33317 13.6834 3.33317 10.0001C3.33317 6.31675 6.3165 3.33341 9.99984 3.33341C13.6832 3.33341 16.6665 6.31675 16.6665 10.0001C16.6665 13.6834 13.6832 16.6667 9.99984 16.6667Z" fill="#FFD300"/>
</svg>
