<svg width="40" height="41" viewBox="0 0 40 41" fill="none" xmlns="http://www.w3.org/2000/svg">
<g clip-path="url(#clip0)">
<path d="M27.7419 4.918H3.87097C1.73629 4.918 0 6.6977 0 8.88574V23.1035C0 25.2915 1.73629 27.0712 3.87097 27.0712H7.34516L7.41935 30.6538C7.44202 31.7285 8.64589 32.3305 9.48629 31.6821C15.8399 26.7722 14.9396 27.4678 15.4532 27.0712H27.7419C29.8766 27.0712 31.6129 25.2915 31.6129 23.1035V8.88574C31.6129 6.6977 29.8766 4.918 27.7419 4.918ZM20.2419 20.7063H11.371C10.6581 20.7063 10.0806 20.1145 10.0806 19.3837C10.0806 18.653 10.6581 18.0611 11.371 18.0611H20.2419C20.9548 18.0611 21.5323 18.653 21.5323 19.3837C21.5323 20.1145 20.9548 20.7063 20.2419 20.7063ZM22.5806 14.92H9.03226C8.31936 14.92 7.74194 14.3282 7.74194 13.5974C7.74194 12.8667 8.31936 12.2749 9.03226 12.2749H22.5806C23.2935 12.2749 23.871 12.8667 23.871 13.5974C23.871 14.3282 23.2935 14.92 22.5806 14.92ZM40 17.1519V28.0632C40 30.2545 38.2669 32.0309 36.129 32.0309H32.6492L32.5806 34.7926C32.5623 35.5109 31.9869 36.0813 31.2903 36.0813C30.7805 36.0813 31.153 36.2308 24.6081 32.0309H18.9516C17.9648 32.0309 17.0634 31.6505 16.3793 31.0253C15.4932 30.2156 16.0489 28.713 17.236 28.713H28.9755C31.4788 28.713 33.5081 26.633 33.5081 24.0671V14.5067C33.5081 13.7762 34.0857 13.1841 34.7984 13.1841H36.129C38.2669 13.1841 40 14.9605 40 17.1519Z" fill="#828282"/>
</g>
<defs>
<clipPath id="clip0">
<rect width="40" height="41" fill="white"/>
</clipPath>
</defs>
</svg>
