<svg width="40" height="42" viewBox="0 0 40 42" fill="none" xmlns="http://www.w3.org/2000/svg">
<g clip-path="url(#clip0)">
<path d="M33.3548 20.9332H29.5521L24.8335 16.0966C25.6673 15.0184 26.1671 13.6571 26.1671 12.1776C26.1671 11.194 25.3893 10.3968 24.4297 10.3968C23.4702 10.3968 22.6924 11.194 22.6924 12.1776C22.6924 12.6731 22.5637 13.1381 22.3397 13.5405L20.9211 12.0864C20.6768 11.8359 20.3454 11.6952 19.9998 11.6952C19.6543 11.6952 19.3228 11.8359 19.0785 12.0864L17.6598 13.5405C17.4358 13.138 17.3071 12.6731 17.3071 12.1776C17.3071 10.6557 18.515 9.41758 19.9998 9.41758C20.9593 9.41758 21.7372 8.62032 21.7372 7.6368V2.28078C21.7371 1.29726 20.9593 0.5 19.9998 0.5C19.0403 0.5 18.2625 1.29726 18.2625 2.28078V6.11131C15.7049 6.88215 13.8325 9.30988 13.8325 12.1775C13.8325 13.657 14.3322 15.0183 15.1661 16.0965L10.4474 20.9331H6.64473C5.16957 20.9331 3.97363 22.1589 3.97363 23.671V38.7621C3.97363 40.2742 5.16949 41.5 6.64473 41.5H33.3548C34.83 41.5 36.0257 40.2742 36.0257 38.7621V23.671C36.0259 22.1589 34.83 20.9332 33.3548 20.9332ZM14.1328 20.9332L17.1884 17.8011C18.0321 18.246 18.9874 18.499 19.9997 18.499C21.0121 18.499 21.9673 18.246 22.8111 17.8011L25.8668 20.9332H14.1328Z" fill="#828282"/>
</g>
<defs>
<clipPath id="clip0">
<rect width="40" height="41" fill="white" transform="translate(0 0.5)"/>
</clipPath>
</defs>
</svg>
