<svg width="39" height="40" viewBox="0 0 39 40" fill="none" xmlns="http://www.w3.org/2000/svg">
<g clip-path="url(#clip0)">
<path d="M19.9063 3.33333H18.1188C17.5825 1.41667 15.86 0 13.8125 0C11.765 0 10.0425 1.41667 9.50625 3.33333H7.71875C7.0525 3.33333 6.5 3.9 6.5 4.58333V7.08333C6.5 8.68333 7.78375 10 9.34375 10H18.2813C19.8413 10 21.125 8.68333 21.125 7.08333V4.58333C21.125 3.9 20.5725 3.33333 19.9063 3.33333Z" fill="#828282"/>
<path d="M23.1563 5H22.75V7.08333C22.75 9.61667 20.7513 11.6667 18.2813 11.6667H9.34375C6.87375 11.6667 4.875 9.61667 4.875 7.08333V5H4.46875C1.99875 5 0 7.05 0 9.58333V30.4167C0 32.95 1.99875 35 4.46875 35H16.4613L16.8188 32.95C16.9813 32.0167 17.4038 31.1833 18.0538 30.5L19.3538 29.1667H6.09375C5.4275 29.1667 4.875 28.6 4.875 27.9167C4.875 27.2333 5.4275 26.6667 6.09375 26.6667H21.5313C21.6125 26.6667 21.6775 26.6667 21.7588 26.7H21.775L27.625 20.7V9.58333C27.625 7.05 25.6263 5 23.1563 5ZM21.5313 23.75H6.09375C5.4275 23.75 4.875 23.1833 4.875 22.5C4.875 21.8167 5.4275 21.25 6.09375 21.25H21.5313C22.1975 21.25 22.75 21.8167 22.75 22.5C22.75 23.1833 22.1975 23.75 21.5313 23.75ZM21.5313 18.3333H6.09375C5.4275 18.3333 4.875 17.7667 4.875 17.0833C4.875 16.4 5.4275 15.8333 6.09375 15.8333H21.5313C22.1975 15.8333 22.75 16.4 22.75 17.0833C22.75 17.7667 22.1975 18.3333 21.5313 18.3333Z" fill="#828282"/>
<path d="M20.3563 40C20.0362 40 19.7242 39.87 19.4951 39.6333C19.2139 39.345 19.0872 38.935 19.1571 38.5317L20.0183 33.5233C20.0606 33.2717 20.1808 33.0383 20.3563 32.8567L32.4219 20.4833C33.9039 18.96 35.3599 19.3717 36.1562 20.1883L38.1663 22.25C39.2762 23.3867 39.2762 25.2367 38.1663 26.375L26.1007 38.75C25.9252 38.9317 25.6977 39.0533 25.4507 39.0967L20.5676 39.98C20.4977 39.9933 20.4262 40 20.3563 40ZM25.2394 37.8667H25.2557H25.2394Z" fill="#828282"/>
</g>
<defs>
<clipPath id="clip0">
<rect width="39" height="40" fill="white"/>
</clipPath>
</defs>
</svg>
