<svg width="37" height="37" viewBox="0 0 37 37" fill="none" xmlns="http://www.w3.org/2000/svg">
<g clip-path="url(#clip0)">
<path d="M35.8937 14.2637H1.1063C0.784212 14.2637 0.489786 14.3925 0.269037 14.6409C0.0576038 14.889 -0.0344219 15.1927 0.0115909 15.5145L2.30207 31.9242C2.49516 33.2764 3.66326 34.3158 5.03377 34.3158H32.0123C33.3828 34.3158 34.5602 33.2764 34.744 31.9149L36.9884 15.5055C37.0345 15.1834 36.9424 14.88 36.731 14.6316C36.5103 14.3925 36.2158 14.2637 35.8937 14.2637ZM18.5 33.4788C13.4318 33.4788 9.31099 29.3579 9.31099 24.2897C9.31099 19.2216 13.4318 15.1007 18.5 15.1007C23.5682 15.1007 27.689 19.2216 27.689 24.2897C27.689 29.3579 23.5682 33.4788 18.5 33.4788Z" fill="#828282"/>
<path d="M18.5004 16.5723C14.2418 16.5723 10.7832 20.0309 10.7832 24.2897C10.7832 26.1201 11.4271 27.8034 12.4939 29.1372L23.4675 18.3936C22.1337 17.2622 20.3954 16.5723 18.5004 16.5723Z" fill="#828282"/>
<path d="M13.5239 30.1858C14.8668 31.3173 16.6054 32.0069 18.5001 32.0069C22.759 32.0069 26.2175 28.5486 26.2175 24.2897C26.2175 22.4591 25.5736 20.7761 24.5066 19.4423L13.5239 30.1858Z" fill="#828282"/>
<path d="M3.07436 12.7919H34.2287V10.4647C34.2287 8.94711 33.0237 7.73299 31.4968 7.73299H19.9899C18.509 7.73299 17.1201 6.92339 16.3656 5.65422L15.4092 4.02599C14.9124 3.19804 14.011 2.67383 13.045 2.67383H5.51191C4.74832 2.67383 4.04006 2.99592 3.51586 3.54779C2.99137 4.09966 2.71557 4.8353 2.75227 5.59889L3.07436 12.7919Z" fill="#828282"/>
</g>
<defs>
<clipPath id="clip0">
<rect width="37" height="37" fill="white"/>
</clipPath>
</defs>
</svg>
