<svg width="35" height="35" viewBox="0 0 35 35" fill="none" xmlns="http://www.w3.org/2000/svg">
<g clip-path="url(#clip0)">
<path d="M32.0833 15.8696C31.2783 15.8696 30.6249 15.2163 30.6249 14.4113C30.6249 10.3207 29.0324 6.47649 26.1405 3.58315C25.5703 3.01295 25.5703 2.09128 26.1405 1.52107C26.7108 0.950862 27.6324 0.950862 28.2026 1.52107C31.6458 4.9642 33.5416 9.54191 33.5416 14.4113C33.5416 15.2163 32.8882 15.8696 32.0833 15.8696Z" fill="#828282"/>
<path d="M2.91634 15.8696C2.11134 15.8696 1.45801 15.2163 1.45801 14.4113C1.45801 9.54191 3.35384 4.9642 6.79697 1.52107C7.36717 0.950862 8.28884 0.950862 8.85905 1.52107C9.42926 2.09128 9.42926 3.01295 8.85905 3.58315C5.96717 6.47503 4.37467 10.3207 4.37467 14.4113C4.37467 15.2163 3.72134 15.8696 2.91634 15.8696Z" fill="#828282"/>
<path d="M31.1775 24.6648C28.9725 22.801 27.7082 20.0769 27.7082 17.1908V13.125C27.7082 7.99312 23.8961 3.745 18.9582 3.03333V1.45833C18.9582 0.651875 18.3048 0 17.4998 0C16.6948 0 16.0415 0.651875 16.0415 1.45833V3.03333C11.1021 3.745 7.2915 7.99312 7.2915 13.125V17.1908C7.2915 20.0769 6.02713 22.801 3.809 24.6765C3.24171 25.1621 2.9165 25.8679 2.9165 26.6146C2.9165 28.0219 4.0613 29.1667 5.46859 29.1667H29.5311C30.9384 29.1667 32.0832 28.0219 32.0832 26.6146C32.0832 25.8679 31.758 25.1621 31.1775 24.6648Z" fill="#828282"/>
<path d="M17.5 35C20.141 35 22.3504 33.1173 22.8579 30.625H12.1421C12.6496 33.1173 14.859 35 17.5 35Z" fill="#828282"/>
</g>
<defs>
<clipPath id="clip0">
<rect width="35" height="35" fill="white"/>
</clipPath>
</defs>
</svg>
