<svg xmlns="http://www.w3.org/2000/svg" id="Layer_1" data-name="Layer 1" viewBox="0 0 34.56 34.56"><defs><style>.cls-1{fill:#828282;}</style></defs><path class="cls-1" d="M17.28,7.81a9.47,9.47,0,1,0,9.47,9.47A9.48,9.48,0,0,0,17.28,7.81Zm.52,15.45a6,6,0,1,1,5.46-6.5A6,6,0,0,1,17.8,23.26Z"/><path class="cls-1" d="M33.71,22.84a17.33,17.33,0,0,0,.85-4.07L31.75,17.4A12.67,12.67,0,0,0,31.69,16c0-.16,0-.32-.05-.48l2.65-1.67a17,17,0,0,0-1.3-4l-3.12.22a13.37,13.37,0,0,0-1-1.55l1.46-2.77a17.76,17.76,0,0,0-3.1-2.77L24.62,4.81A16.13,16.13,0,0,0,23,4L22.84.85A17.31,17.31,0,0,0,18.76,0L17.4,2.81q-.67,0-1.38.06l-.47,0L13.88.27a17.51,17.51,0,0,0-4,1.3l.23,3.12a14.8,14.8,0,0,0-1.55,1L5.83,4.25A17,17,0,0,0,3.06,7.36L4.81,10A16,16,0,0,0,4,11.6l-3.12.12A17.31,17.31,0,0,0,0,15.8l2.81,1.36c0,.46,0,.92,0,1.38l.06.47L.27,20.68a17.51,17.51,0,0,0,1.3,4l3.12-.23a14.8,14.8,0,0,0,1,1.55L4.25,28.73a17.77,17.77,0,0,0,3.1,2.78l2.59-1.76a13.6,13.6,0,0,0,1.66.84l.12,3.12a16.82,16.82,0,0,0,4.08.85l1.36-2.81c.46,0,.92,0,1.38-.05.16,0,.31,0,.47-.06l1.67,2.65a17,17,0,0,0,4-1.29l-.23-3.13a13.29,13.29,0,0,0,1.55-1l2.77,1.45a17.36,17.36,0,0,0,2.77-3.1l-1.75-2.59A15.17,15.17,0,0,0,30.59,23ZM17.28,28.77A11.49,11.49,0,1,1,28.77,17.28,11.5,11.5,0,0,1,17.28,28.77Z"/></svg>