<svg width="37" height="37" viewBox="0 0 37 37" fill="none" xmlns="http://www.w3.org/2000/svg">
<path d="M36.2682 34.8871C35.8121 34.6214 33.0349 32.9016 31.5489 29.792C35.0193 26.547 36.9932 22.0328 36.9932 17.4128C36.9932 7.85137 28.656 0 18.4966 0C8.33721 0 0 7.85137 0 17.4128C0 26.9743 8.33721 34.8257 18.4966 34.8257C19.8604 34.8257 21.3253 34.6978 23.3464 34.2732C28.6585 37.0959 33.4265 37.0165 35.2405 36.9879C36.0481 36.9779 36.6344 37.1237 36.9361 36.2894C37.1403 35.7298 36.8383 35.0834 36.2682 34.8871ZM20.6642 26.1554C20.6642 27.3524 19.6938 28.323 18.4966 28.323C17.2994 28.323 16.329 27.3524 16.329 26.1554V17.4128C16.329 16.2157 17.2994 15.2452 18.4966 15.2452C19.6938 15.2452 20.6642 16.2157 20.6642 17.4128V26.1554ZM18.4966 11.9217C17.2994 11.9217 16.329 10.9511 16.329 9.75405C16.329 8.5569 17.2994 7.58644 18.4966 7.58644C19.6938 7.58644 20.6642 8.5569 20.6642 9.75405C20.6642 10.9511 19.6938 11.9217 18.4966 11.9217Z" fill="#828282"/>
</svg>
