<svg xmlns="http://www.w3.org/2000/svg" id="Layer_1" data-name="Layer 1" viewBox="0 0 29.5 30.74"><defs><style>.cls-1{fill:#828282;}</style></defs><path class="cls-1" d="M28.48,16.45H23a5,5,0,0,0-5,5h0a5,5,0,0,0,5,5h5.44V27.6a3.14,3.14,0,0,1-3.15,3.14H3.14A3.14,3.14,0,0,1,0,27.6v-16A3.15,3.15,0,0,1,3.14,8.48H5.19v2H3.61a.6.6,0,0,0-.61.6H3a.6.6,0,0,0,.61.6H25.33a3.15,3.15,0,0,1,3.15,3.14Z"/><path class="cls-1" d="M28.54,18.05l-5.38,0a3.1,3.1,0,0,0-3.08,3.1h0a3.1,3.1,0,0,0,3.13,3.11l5.34,0a1,1,0,0,0,.95-1V19A1,1,0,0,0,28.54,18.05Zm-4.75,4.88a1.75,1.75,0,1,1,1.75-1.75A1.75,1.75,0,0,1,23.79,22.93Z"/><path class="cls-1" d="M6.42,10.53l.82-6.42A2.31,2.31,0,0,1,9.56,2.2C9,4.11,7.3,10.53,7.3,10.53Z"/><path class="cls-1" d="M8.88,10.53l2.18-8.06s.28-1.5,2.73-1.23c-.54,1.92-4,9.29-4,9.29Z"/><path class="cls-1" d="M11.42,10.53l4-9.26A2.1,2.1,0,0,1,18.15.17l9.08,3.9A2.12,2.12,0,0,1,28.31,6.9l-1.69,3.63h-2.1L25.13,9s-2.87-.82-1.78-4.37c-1.5-.55-3.14-1.23-3.14-1.23A3.19,3.19,0,0,1,15.84,5.2c-1.23,3-2.15,5.33-2.15,5.33Z"/><path class="cls-1" d="M15.53,10.53a3,3,0,0,1,3.18-2.87,3.93,3.93,0,0,1,4.11,2.87Z"/></svg>