<svg width="18" height="18" viewBox="0 0 18 18" fill="none" xmlns="http://www.w3.org/2000/svg">
<path d="M8.99984 0.666748C4.3915 0.666748 0.666504 4.39175 0.666504 9.00008C0.666504 13.6084 4.3915 17.3334 8.99984 17.3334C13.6082 17.3334 17.3332 13.6084 17.3332 9.00008C17.3332 4.39175 13.6082 0.666748 8.99984 0.666748ZM13.1665 11.9917L11.9915 13.1667L8.99984 10.1751L6.00817 13.1667L4.83317 11.9917L7.82484 9.00008L4.83317 6.00841L6.00817 4.83342L8.99984 7.82508L11.9915 4.83342L13.1665 6.00841L10.1748 9.00008L13.1665 11.9917Z" fill="#C2C9D1"/>
<path d="M8.99984 0.666748C4.3915 0.666748 0.666504 4.39175 0.666504 9.00008C0.666504 13.6084 4.3915 17.3334 8.99984 17.3334C13.6082 17.3334 17.3332 13.6084 17.3332 9.00008C17.3332 4.39175 13.6082 0.666748 8.99984 0.666748ZM13.1665 11.9917L11.9915 13.1667L8.99984 10.1751L6.00817 13.1667L4.83317 11.9917L7.82484 9.00008L4.83317 6.00841L6.00817 4.83342L8.99984 7.82508L11.9915 4.83342L13.1665 6.00841L10.1748 9.00008L13.1665 11.9917Z" fill="black" fill-opacity="0.25"/>
</svg>
