<svg width="97" height="97" viewBox="0 0 97 97" fill="none" xmlns="http://www.w3.org/2000/svg">
<path d="M48.5 0C21.717 0 0 21.7127 0 48.4979C0 75.283 21.7149 96.9957 48.5 96.9957C75.2873 96.9957 97 75.283 97 48.4979C97 21.7127 75.2873 0 48.5 0ZM48.5 14.5014C57.3623 14.5014 64.5438 21.685 64.5438 30.5431C64.5438 39.4033 57.3623 46.5848 48.5 46.5848C39.6419 46.5848 32.4604 39.4033 32.4604 30.5431C32.4604 21.685 39.6419 14.5014 48.5 14.5014ZM48.4893 84.3158C39.6504 84.3158 31.555 81.0968 25.3109 75.7687C23.7898 74.4713 22.9121 72.5689 22.9121 70.5728C22.9121 61.589 30.1831 54.399 39.169 54.399H57.8353C66.8233 54.399 74.0666 61.589 74.0666 70.5728C74.0666 72.571 73.1931 74.4692 71.6699 75.7666C65.4279 81.0968 57.3304 84.3158 48.4893 84.3158Z" fill="#828282"/>
</svg>
