<svg width="46" height="46" viewBox="0 0 46 46" fill="none" xmlns="http://www.w3.org/2000/svg">
<path d="M22.766 0C10.194 0 0 10.192 0 22.765C0 35.338 10.193 45.53 22.766 45.53C35.34 45.53 45.532 35.338 45.532 22.765C45.532 10.192 35.34 0 22.766 0ZM22.766 6.807C26.926 6.807 30.297 10.179 30.297 14.337C30.297 18.496 26.926 21.867 22.766 21.867C18.608 21.867 15.237 18.496 15.237 14.337C15.237 10.179 18.608 6.807 22.766 6.807ZM22.761 39.578C18.612 39.578 14.812 38.067 11.881 35.566C11.167 34.957 10.755 34.064 10.755 33.127C10.755 28.91 14.168 25.535 18.386 25.535H27.148C31.367 25.535 34.767 28.91 34.767 33.127C34.767 34.065 34.357 34.956 33.642 35.565C30.712 38.067 26.911 39.578 22.761 39.578Z" fill="#828282"/>
</svg>
